<?xml version="1.0" encoding="UTF-8"?>
<!DOCTYPE svg PUBLIC "-//W3C//DTD SVG 1.1//EN" "http://www.w3.org/Graphics/SVG/1.1/DTD/svg11.dtd">
<!-- Creator: CorelDRAW 2018 (64-Bit) -->
<svg xmlns="http://www.w3.org/2000/svg" xml:space="preserve" width="506.134mm" height="211.838mm" version="1.1" style="shape-rendering:geometricPrecision; text-rendering:geometricPrecision; image-rendering:optimizeQuality; fill-rule:evenodd; clip-rule:evenodd"
viewBox="0 0 2138.23 894.94"
 xmlns:xlink="http://www.w3.org/1999/xlink">
 <defs>
  <style type="text/css">
   <![CDATA[
    .fil0 {fill:#0C4727}
   ]]>
  </style>
 </defs>
 <g id="Layer_x0020_1">
  <metadata id="CorelCorpID_0Corel-Layer"/>
  <path class="fil0" d="M1699.12 619.07c-135.29,-8.11 -245.6,-23.61 -374.44,-37.1l20.25 -22.1c69.99,-59.49 99.53,-118.07 146.18,-124.36 23.35,83.19 33.37,145.18 125.6,153.6 109.71,10.01 131.65,-78.17 181.05,-101.35 10.13,58.3 17.07,88.87 83.65,88.6 58.3,-0.24 86.43,-38.41 107.77,-69.63 19.56,18.44 19.17,36.84 50.52,43.14 32.02,6.44 55.87,-9.74 69.5,-25.18 26.97,-30.56 47.8,-116.39 2.49,-141.94 -29.57,132.57 2.34,29.09 -7.46,86.56 -34.25,19.28 -55.18,3.24 -77.61,-14.24 -4.64,-30.9 8.17,-43.99 -0.37,-61.81 -38.87,16.54 -37.01,82.7 -98.23,101.51 -27.07,8.32 -62.88,5.14 -83.99,-9.21 -27.69,-18.82 -17.46,-45.51 -19.25,-80.25 -52.52,13.5 -72.68,99.56 -176.33,107.04 -47.01,3.39 -74.93,-12.62 -96.69,-43.1 -26.28,-36.81 -17.81,-71.77 -37.81,-107.09 -54.42,-12.25 -89.29,86.82 -170.01,140.33 -53.74,35.63 -189.14,55.64 -178.12,137.79 57.08,8.11 207.04,14.11 248.01,32.69 -39.2,24.23 -151.46,84.2 -210.7,69.22 -67.16,-16.98 -55.72,-153.99 -57.79,-224.85 -3.33,-113.84 1.53,-442.59 -57.4,-515.39 -40.74,40.51 -7.31,110.14 1.88,166.69 24.2,148.83 5.51,484.58 40.1,583.78 47.12,135.12 190.94,34.17 274.52,-6.67 200.2,-97.82 273.29,2.12 294.65,-126.67z"/>
  <path class="fil0" d="M407.86 252.14c-43.29,63.74 -3.39,120.49 4.31,191.11 9.01,82.64 -2.95,141.39 -63.24,166.23 -79.43,32.73 -130.68,-2.69 -134.81,-80.08 -3.64,-68.21 51.88,-217.22 6.4,-209.84 -77.03,12.5 -80.96,299.94 -146.76,306.33 -83.93,8.15 -49.81,-183.67 -48.97,-222.2 -27.86,31.04 -27.09,130.11 -22.04,166.51 8.02,57.81 29.4,116.3 90.25,111 44.66,-16.09 61.42,-148.84 79.32,-210.67 8.15,-28.13 27.48,-55.36 29.75,-62.29 2.54,24.33 -17.52,100.05 -16.23,147.07 4.55,165.98 131.69,162 185.1,114.04 37.82,-33.96 38.34,-59.48 62.1,-114.13 57.36,75.28 -33.24,173.83 77.33,287.82 61.53,63.43 190.94,63.83 288.33,27.41 87.11,-32.58 174.82,-88.47 224.69,-140.66 84.74,-88.68 37.57,-177.18 -8.45,-270.11 18.2,-6.4 12.07,6.16 35.35,-5.34 -15.97,-36.92 -44.12,-54.32 -75.69,-78.18 -48.39,84.19 73.07,221.79 68.26,260.81 -36.46,69.61 -190.99,150.01 -297.38,173.57 -153.07,33.9 -290.4,-26.74 -278.7,-178.18 77.06,73.69 154.41,63.56 177.84,-29.49 22.25,-88.38 -25.49,-185.56 -48.25,-261.88 8.14,-4.16 18.51,4.46 30.96,-6.3 -11.88,-22.15 -44.85,-83.84 -68.35,-96.19 -29.87,41.7 -17.8,52.9 -9.46,98.55 7.57,41.46 12.13,69.06 25.02,108.07 19.56,59.19 95.8,149.18 3.29,155 -81.87,5.15 -102.05,-71.73 -115.31,-143.44 -7.83,-42.35 -19.33,-171.75 -54.68,-204.55z"/>
  <path class="fil0" d="M701.59 734.43l18.08 -25.28c52.26,-113.9 3.41,-407.61 -0.49,-551.98l35.34 20.88c-4.11,-37.52 -44.08,-148.32 -63.29,-171.75 -38.31,42.81 -16.81,95.01 -14,158.25 8.92,200.79 31.41,360.56 24.36,569.87z"/>
  <path class="fil0" d="M1253.76 424.94c6.03,-47.49 -15.01,-13.54 -35.7,-54.81 127.91,-44.21 340.68,-96.54 484.15,-132.59 39.1,-9.82 43.62,-4.52 53.33,-37.56 -43.74,7.58 -448.74,108.22 -498.43,127.28 -74.42,28.55 -66.04,110.32 -3.35,97.68z"/>
  <path class="fil0" d="M1502.38 833.47c90.63,5.22 127.97,-55.78 202.25,-77.18 71.48,-20.6 66.77,8.24 109.97,16.77 25.72,5.08 35.74,-8.4 54.74,-9.32 26.48,-1.29 17.56,14.02 56.16,12.54 18.59,-15.75 44.88,-47.43 31.49,-78.69 -22.65,14.83 -15.76,15.38 -25.19,39.48l-30.28 -7.11c1.42,-20.65 -1,-8.09 8.57,-27.78 -39.69,0.48 -26.06,55.79 -99.28,17.95 -87.69,-45.33 -170.13,61.24 -252.98,90.77 -10.96,3.91 -18.59,5.76 -28.28,9.21 -0.3,0.11 -13.52,5.32 -13.97,5.54 -12.04,5.83 -6.76,3.01 -13.19,7.84z"/>
  <path class="fil0" d="M1172.25 37.44c44.11,58.73 111.86,93.86 89.91,220.15 -1.92,11.04 -4.23,23.97 2.95,34.71 18.56,-57.59 35.76,-99.53 17.49,-171.28 -14.14,-55.54 -48.5,-100.67 -87.59,-120.35l-22.76 36.77z"/>
  <path class="fil0" d="M201.62 182.44c17.27,11.62 29.08,21.42 51.07,13.72 0.27,-44.93 -8.56,-15.3 -38.58,-44.08 25.57,-29.42 177.7,-81.42 231.04,-101.25 32.44,-12.06 58.61,-11.38 62.95,-47.6 -57.46,16.56 -120.31,42.46 -178.77,64 -56.22,20.71 -141.29,38.74 -127.71,115.2z"/>
  <path class="fil0" d="M1989.75 228.42c-27.01,-10.64 -21.31,-2.08 -28.06,-27.42l23.49 -4.04 4.57 31.46zm-20.19 37.02c-63.69,63.86 -147.01,91.33 -172.75,120.34 76.64,-15.56 140.25,-57.43 187.56,-112.02 33.67,5.6 21.38,30 40.24,-14.61 -20.31,-40.5 -20.06,12.26 -14.09,-58.35 6.99,-82.62 -100.51,-8 -63.35,42.65 0.77,1.05 7.42,7.51 9.5,9.56 1.3,1.28 5.41,5.03 6.54,6.13l6.36 6.32z"/>
  <path class="fil0" d="M1608.82 333.53l96.88 0.94c-4.96,15.22 12.23,7.12 -45.7,36.89 -25.09,12.89 -26.81,13.49 -46.78,29.77 58.99,-9.32 145.12,-45.2 140.59,-108.73 -72.32,-11.65 -127.46,-33 -144.98,41.13z"/>
  <path class="fil0" d="M1338.32 45.03c33.53,58.62 39.14,-24.81 53.38,99.68 5.81,50.77 1.14,33.44 13.98,47.34 16.9,-41.18 38.09,-100.65 61.11,-139.4 31.65,6.14 14.09,28.53 31.99,11.65 18.11,-17.07 0.32,-35.54 -7.79,-45.45 -53.89,0.47 -57.31,81.96 -80.59,121.54 -4.66,-50.94 -10.55,-107.57 -45.36,-126.09 -17.41,7.88 -17.34,9.24 -26.73,30.72z"/>
  <path class="fil0" d="M2055.43 717.49c-19.56,-50.8 -12.55,-93.65 -60.66,-120.13 -18.65,12.08 -19.14,14.66 -23.75,33.32 37.81,56.93 30.36,-41.26 69.06,111.89 0.95,3.75 2.83,11.25 4.4,14.72 5.92,13.05 0.07,3.67 8.64,13.09 15.19,-39.28 26.56,-114.92 48.71,-146.52 28.66,4.57 7.21,3.96 30.38,12.26 8.28,-27.33 3.6,-43.69 -24.08,-50.01 -33.98,19.17 -40.64,82.83 -52.69,131.38z"/>
  <path class="fil0" d="M451.2 176.49c-52.99,4.03 -24.33,-39.24 -49.64,-83.31 -15.91,22.74 -2.35,42.58 -1.9,60.14 0.67,26.09 -13.64,31.23 -38.19,32.59 -11.03,-37.05 0.18,-46.61 -7.06,-81.13 -34.05,11.22 -16.79,30.93 -12.67,71.94 4.09,40.76 24.33,52.62 48.19,33.39l19.69 -22.18c8.77,17.91 4.93,17.8 29.72,22.76 42.2,-28.33 21.23,-83.71 3.07,-124.8 -24.4,38.88 6.14,53.89 8.79,90.6z"/>
  <path class="fil0" d="M172.62 256.91c-23.92,-2.1 -17.04,-4.4 -23.17,-10.36 2.91,-12.58 7.24,-9.74 20.59,-11.48l2.58 21.84zm-34.78 7.54c9.19,7.75 13.6,10.02 22.85,18.51 -17.6,10.49 -37.66,26.49 -60.08,40.55 -23.51,14.75 -44.87,26.11 -63.06,40.82 40.61,-9.68 69.37,-22.67 101.29,-46.75 11.3,-8.53 18.04,-19.66 29.83,-26.99 4.73,-2.94 104.3,-11.25 25.42,-75.74 -15.04,-12.3 -22.28,-14.14 -46.65,-13.41l-9.59 63.01z"/>
  <path class="fil0" d="M336.77 839.38c-23.95,-40.21 -23.67,-77.83 -67.45,-95.74 -17.39,14.85 -35.67,46.33 22.49,47.1l44.03 98.43c18.21,-44.6 9.76,-94.9 30.05,-136.6 16.81,4.11 10,5.81 27.28,8.59 4.03,-27.51 -1.8,-34.72 -23.1,-41.28 -31.13,20.47 -30.31,73.04 -33.3,119.5z"/>
  <path class="fil0" d="M800.8 215.9c37.87,-8.77 142.03,-55.11 194.85,-74.29 31.14,-11.3 39.95,-6.75 49.04,-40.31 -42.66,9.67 -143.34,51.96 -196.01,69.7 -36.02,12.13 -37.38,6.51 -47.88,44.91z"/>
  <path class="fil0" d="M908.57 293.04c31.06,11.05 35.87,27.91 67.64,37.24 8.3,-20.98 20.35,-33.5 22.46,-58.54 -14.45,-16.06 -41.54,-31.94 -60.79,-41.55 -12.86,15.72 -23.21,37.93 -29.32,62.85z"/>
  <path class="fil0" d="M1730.95 626.45c20.11,12.28 42.53,30.86 62.31,39.13l30.89 -52.65c-17.65,-21.07 -36.78,-35.01 -62.37,-45.49 -16.59,16.81 -25.22,37.16 -30.82,59.01z"/>
  <path class="fil0" d="M613.16 129.13c-12.74,16.51 -12.89,22.73 -35.45,27.55 -31.71,-36.74 6.72,-96.27 10.16,-140.32 -20.53,41.94 -42.09,76.78 -40.02,135.54 1.89,53.59 49.86,70.53 65.31,-22.77z"/>
  <path class="fil0" d="M1827.77 256.05c25.02,6.3 39.08,1.21 44.79,-18.99 9.77,-34.57 -11.28,-26.23 -31.99,-32.26 14.29,-28.12 28.28,-42.14 39.9,-63.86 -23.25,9.81 -78.92,71.36 -52.7,115.1z"/>
  <path class="fil0" d="M73.21 794.41l-25.87 -10.87c-0.84,-0.34 -2.76,-1 -4.02,-1.73 13.35,-26.53 26.58,-38.18 36.87,-59.3 -21.27,11.49 -52.58,47.38 -57.66,78.83 -9.56,59.21 55.32,48.37 50.68,-6.93z"/>
  <path class="fil0" d="M804.63 40.87c18.11,-5.74 21.84,-6.72 34.49,0.91 0.25,27.06 -38.31,70.06 -50.39,82.29 32.97,-15.9 87.53,-65.68 65.63,-122.14 -40.8,-6.56 -44.38,2.85 -49.74,38.94z"/>
  <path class="fil0" d="M168.56 863.29c32.09,-3.76 33.42,-19.87 38.23,-52.54l-7.33 7.77c-62.59,57.93 -15.28,-101.75 -13.89,-111.02 -22.07,36.3 -59.37,124.03 -17,155.79z"/>
  <path class="fil0" d="M1053.45 853.96c36.36,5.81 50.7,-16.62 49.37,-55.52 -4.07,13.48 -11.47,23.93 -29.92,23.57 -25.63,-30.78 1.22,-84.3 8.15,-117.85 -27.78,37.54 -43.32,94.73 -27.6,149.8z"/>
  <path class="fil0" d="M857.35 627.58c29.42,-1.46 38.62,-25.33 39.02,-57.15 -11.67,20.11 -5.71,18.58 -28.81,23.35 -25.91,-30.44 -1.55,-76.72 6.2,-116.23 -8.55,11.1 3.57,-8.97 -8.8,11.75l-20.17 55.03c-8.76,38.76 -10.13,63.03 12.56,83.25z"/>
  <path class="fil0" d="M1576.18 70.22c1.67,0.66 4.26,-0.48 5.15,1.58 4.92,11.38 5.8,-7.4 27.18,11.01 -3.59,30.1 -32.74,55.38 -46.48,74.83 35.72,-18.89 73.9,-57.31 63.56,-115.44 -30.45,-5.59 -38.74,-0.56 -49.41,28.01z"/>
  <path class="fil0" d="M300.8 552.48c23.82,-6.09 28.93,-17.77 31.24,-46.91 -12.31,10.3 -12.27,14.96 -27.13,14.78 -8.96,-13.96 -10.86,-18.43 -6.56,-43.67 3.21,-18.84 7.53,-28.48 10.19,-48.3 -20.55,22 -45.28,100.44 -7.75,124.1z"/>
  <path class="fil0" d="M814.03 356.75c24.03,-9.24 16.37,-5.04 28.67,3.15 -4.24,27.84 -28.53,52.08 -42,67.57 122.02,-67.13 20.49,-164.73 13.33,-70.72z"/>
  <path class="fil0" d="M1502.18 748.83l0.5 5.13c7.38,19.58 7.85,8.66 6.58,26.82l-78.93 4.35c135.31,44.52 137.58,-65.85 71.85,-36.3z"/>
  <path class="fil0" d="M819.17 726.96l-45.41 21.54c75.08,-4.32 91.57,-76.07 44.81,-61.2 -12.93,4.11 -17.72,13.9 -10.67,27.44l11.28 12.22z"/>
  <path class="fil0" d="M596.95 768.48c26.81,1.44 27.53,-0.3 34.77,-24.45l-21.79 -18.89 14.18 -26.7c-16.21,11.06 1.09,-8.39 -15.68,13.41 -13.97,18.14 -17.37,36.81 -11.47,56.64z"/>
  <path class="fil0" d="M946.99 72.11c0.35,0.16 10.42,26.19 35.09,-14.49 -6.51,-22.39 2.37,-14.06 -22.57,-17.71 10.2,-30.12 6.44,-20.08 1.77,-28.43 -8.02,19.77 -21.26,36.63 -14.29,60.63z"/>
  <path class="fil0" d="M295.4 284.33l23.01 12.59 -19.85 39.05c24.52,-12.98 37.13,-37.98 31.34,-68.28 -26.89,-6.01 -24.31,-4.68 -34.5,16.63z"/>
  <path class="fil0" d="M1721.58 166.52c10.27,4.12 9.15,12.36 33.13,-6.42 -8.39,-30.45 5.08,1.01 -21.48,-20.61 7.11,-21.46 18.15,-28.28 28.17,-45.04 -22.22,13.64 -50.24,38.36 -39.82,72.07z"/>
 </g>
</svg>
