<?xml version="1.0" encoding="UTF-8"?>
<!DOCTYPE svg PUBLIC "-//W3C//DTD SVG 1.1//EN" "http://www.w3.org/Graphics/SVG/1.1/DTD/svg11.dtd">
<!-- Creator: CorelDRAW 2018 (64-Bit) -->
<svg xmlns="http://www.w3.org/2000/svg" xml:space="preserve" width="514.364mm" height="239.568mm" version="1.1" style="shape-rendering:geometricPrecision; text-rendering:geometricPrecision; image-rendering:optimizeQuality; fill-rule:evenodd; clip-rule:evenodd"
viewBox="0 0 2206.48 1027.68"
 xmlns:xlink="http://www.w3.org/1999/xlink">
 <defs>
  <style type="text/css">
   <![CDATA[
    .fil0 {fill:#0C4727}
   ]]>
  </style>
 </defs>
 <g id="Layer_x0020_1">
  <metadata id="CorelCorpID_0Corel-Layer"/>
  <path class="fil0" d="M1164.56 796.34c-26.3,-10.1 -25.11,-8.31 -32.94,-27.94 36.44,-32.14 70.22,13.09 82.85,39.74 -18.01,-1.42 -34.44,-5.85 -49.91,-11.8zm675.93 -246.1c-93.01,6.09 -170.55,-12.47 -194.15,24.32 -10.43,16.26 -18.81,34.64 -20.54,54.76 47.61,-4.63 261.5,25.65 290.7,45.43 -105.69,64.75 -479.39,178.62 -633.93,105.71 -55.2,-26.04 -63.4,-138.2 -147.5,-64.77 -73.25,63.95 -62.55,119 -123.53,138.73 -82.88,26.83 -121.85,-49.03 -134.09,-116.32 -27.59,-151.68 -34.89,-226.29 -124.04,-368.14 -11.2,-17.82 -4.69,-10.64 -18.37,-21.77 -30.34,104.14 7.72,100.99 56.97,251.56 49.17,150.33 26.61,141.29 -53.26,224.72 -32.33,33.77 -136.87,123.19 -202.11,130.48 -111.29,12.43 -71.58,-164.76 -30.64,-209.27 54.1,52.17 158.51,93.98 188.44,-22.83 26.91,-105.03 -34.17,-171.83 -67.93,-246.31l25.93 -6.39c-17.12,-48.95 -53.07,-74.04 -73.88,-110.28 -27.85,24.91 -23.87,60.15 -9.45,92.09 12.59,27.89 19.82,60.57 32.09,89.33 35.58,83.42 126.18,174.59 25.59,184.36 -23.43,2.27 -46.01,-3.77 -62.21,-13.43 -96.43,-57.44 -60.14,-206.3 -122.24,-336.91 -74.83,65.44 79.39,291.37 -50.21,370.93 -46.64,28.63 -119.95,14.41 -138.04,-81.05 -15.44,-81.49 23.61,-142.03 2.12,-221.99 -76.3,17.05 -84.32,217.88 -114.03,296.24 -29.76,78.5 -76.76,40.59 -99.86,-16.74 -17.58,-43.62 -18.42,-151.92 -34.74,-174.77 -29.19,104.19 30.03,311.98 111.1,289.74 77.07,-21.14 48.91,-252.31 116.55,-302.28 -8.55,102.72 -32.81,233 48.54,278.39 143.05,79.8 179.54,-128.58 189.02,-146.9 13.69,54.24 33.34,50.66 6.71,103 -17,33.41 -26.75,60.1 -33.33,100.46 -13.68,83.9 9.46,177.51 108.47,153.55 64.74,-15.67 229.42,-157.72 262.81,-210.3 13.57,-21.36 11.79,-34.28 21.07,-53.32 17.02,34.65 7.71,127.05 96.94,162.95 89.17,35.87 118.83,-50.78 147.39,-98.87 24.35,18.53 45.73,37.9 87.39,49.32 84.08,23.05 57.96,14.98 90.31,-27.84 43.47,14.23 57.81,22.97 110.03,27.96 -6.76,39.44 -39.4,84.11 -14.34,120.69 39.04,22.13 51.57,-24.81 48.53,-61.12 -15.9,20.64 -4.08,25.21 -29.9,34.35 -24.19,-34.09 9.59,-85.69 14.51,-89.07 7.63,-3.35 154.78,-14.86 192.69,-23.35 61.18,-13.71 109.56,-33.2 165.88,-51.23 63.26,-20.25 272.65,-121.48 328.03,-107.06 47.37,171.8 -94.85,199.83 -162.91,257.38 22.71,16.43 121.1,-18.9 155.42,-66.34 32.02,-44.26 45.76,-133.61 45.76,-197.4l80.31 4.86 11.96 -66.91 -97.57 -9.8 -70.55 -402.31c21.84,13.39 22.08,25.06 45.01,29.37 -2.73,-40.2 -66,-166.07 -87.5,-184.33 -36.63,48.39 -11.92,74.47 -1.9,129.95 19.03,105.34 64.9,342.28 72.26,424.82 -74.7,-4.06 -136.26,-19.4 -205.17,-29.9 16.92,-102.81 17.13,-112.69 -2.53,-214.85 -11.97,-62.23 -34.08,-148.28 -37.81,-208.57 1.32,1.09 3.3,1.08 3.92,3.34l37.19 29.11c0.4,-33.41 -66.26,-172.49 -86.35,-195.4 -38.78,51.99 -14.15,66.76 -3.5,118.28 9.41,45.54 16.72,95.44 25.07,141.75 10.06,55.77 56.01,247.2 43.42,290.22z"/>
  <path class="fil0" d="M885.98 452.18c9.3,-35.02 -7.29,-26.21 -28.3,-43.24 17.29,-42.22 383.51,-183.88 427.27,-202.1l394.68 -155.23c28.68,-10.87 34.36,-12.59 33.19,-46.41 -205.51,79.81 -514.76,205.97 -720.21,299.22 -31.43,14.26 -89.88,36.85 -117.62,55.15 -15.04,9.93 -31.03,26.05 -31.69,53.3 -0.56,23.18 11.22,40.74 33.46,41.07 1.13,0.02 3.64,-0.65 4.56,-0.71 0.96,-0.06 3.18,-0.47 4.66,-1.05z"/>
  <path class="fil0" d="M27.89 487.55c26.55,-14.06 49.59,-30.52 77.18,-47.43 51.31,-31.45 199.54,-97.14 257.14,-126.66l261.91 -121.71c43.34,-20.6 60.42,-16.49 73.3,-61.51 -38.53,10 -457.62,211.95 -523.13,244.98 -51.13,25.78 -140.91,56.79 -146.4,112.33z"/>
  <path class="fil0" d="M960.94 109.88l106.11 -12.3c-23.42,33.34 -86.48,47.09 -111.5,77.14 80.92,0.19 141.08,-40.91 159.06,-107.19 13.13,-48.39 -54.26,-36.84 -90.65,-32.02 -32.9,4.36 -32.25,2.41 -45.72,24.43 -7.67,12.53 -17.87,32.06 -17.29,49.93z"/>
  <path class="fil0" d="M767.76 114.2l44.63 27.43c-22.2,31.42 -77.94,85.61 -108.01,111.1 -37.23,31.56 -89.71,67.18 -120.91,102.96 44.79,-15.57 95.68,-61.01 128.85,-88.47 38.8,-32.11 91.85,-65.75 106.86,-118.57l36.5 10.05c7.43,-44.74 -7.13,-23.26 -15.19,-54.41 -5.19,-20.03 2.8,-38.41 -14.63,-56.96 -29.1,-31 -62.92,17.11 -58.12,66.87z"/>
  <path class="fil0" d="M1422.13 443.41c23.23,-8.79 13.11,-13.79 35.12,-4.52 -43.49,36.21 -55.71,38.68 -27.6,130.77l41.89 154.49c24.5,-50.61 -39.41,-175.5 -42.39,-233.23 19.33,-14.7 48.53,-19.23 73.91,-26.63 5.96,-47.91 -31.95,-65.53 -63.49,-65.04 -16.44,17.13 -16.85,15.48 -17.44,44.16z"/>
  <path class="fil0" d="M1739.6 879.27c17.15,-8.84 29.23,-17.61 54.73,-9.35 -7.07,33.73 -35.16,37.74 -28.8,92.75 77.37,21.59 147.22,-35.1 159.66,-94.09 -18.86,15.87 -36.01,38.3 -56.51,49.74 -25.74,14.36 -60.05,21.44 -88.29,10.71 5.05,-24.21 44.34,-65.57 34.02,-85.49 -12.84,-24.78 -69.5,-17.22 -74.81,35.73z"/>
  <path class="fil0" d="M173.79 977.03c46.8,-14.44 91.98,-37.13 137.89,-55.33 89.58,-35.52 110.35,-32.52 117.71,-76.67l-207.19 83.09c-34.67,13.75 -42.04,11.03 -48.41,48.91z"/>
  <path class="fil0" d="M1443.19 340.03c-4.91,-7.07 -53.35,-105.95 -83.2,-69.59 -14.76,45.59 18.85,35.79 43.37,56.4 6.56,5.51 15.87,21.68 20.61,31.08 3.07,6.09 5.73,13.07 8.12,17.38 0.74,1.34 1.51,3 2.32,4.3l12.95 15.77c12.46,-36 -3.74,-101.6 20.33,-133.61 28.83,-0.58 17.59,6.44 39.99,15.44 4.27,-40.48 -3.51,-53.19 -44.36,-50.93 -19.86,47.43 -14.99,55.98 -20.13,113.75z"/>
  <path class="fil0" d="M1015.37 616.28c-30.52,23.42 -57.85,27.01 -54.8,-26.03 25.09,4.77 42.77,10.68 54.8,26.03zm-56.18 45.61c79.5,20.54 122.53,-77.72 13.49,-108l-0.02 -42.35c-25.68,38.76 -34.19,112.69 -13.47,150.36z"/>
  <path class="fil0" d="M1192.48 498.23l-30.41 -44.69c-11.98,-17.13 -19.66,-27.46 -48.87,-29.59 -8.97,49.61 -3.71,36.46 31.94,59.2 34.13,21.77 13.26,44.17 53.43,59.77l7.96 -125.48c24.11,2.5 26.81,8.31 40.8,19.25 12.67,-32.06 2.38,-51.19 -31.57,-54.41 -24.59,26.5 -22.99,73.38 -23.28,115.95z"/>
  <path class="fil0" d="M1276.71 109.83c-0.06,-0.08 -91.89,-157.5 -81.25,-34.87 77.43,28.75 43.75,53.13 81.58,78.76 15.55,-22.26 9.37,-48.89 13.44,-80.54 7.29,-56.77 19.79,-26.68 50.36,-21.5 4.11,-34.05 -5.04,-43.25 -35.57,-46.74 -23.06,29.66 -22.41,58.12 -28.55,104.89z"/>
  <path class="fil0" d="M503.95 129.22c-22.86,-36.11 -27.88,-74.77 -74.86,-80.86l-7.45 38.03c17.5,12.56 39.62,18.71 51.15,33.33 6.86,8.7 8.55,16.39 12.96,25.53 11.45,23.72 1.99,14.1 20.24,24 18.74,-24.76 12.04,-79.37 19.78,-107.92 28.37,-3.09 24.8,2.43 45.41,12.19 2.69,-32 -4.25,-46.47 -33.22,-50.49 -30.22,27.43 -22.85,61.64 -34.02,106.2z"/>
  <path class="fil0" d="M1691.22 201.57c-24.63,36.46 -55.67,20.97 -57.4,-22.95l57.4 22.95zm13.35 -28c-15.46,-19.39 -49.39,-29.25 -64.09,-19.26l-1 -42.77c-20.16,24.28 -23.44,117.99 -0.98,134.4 38.44,28.08 87.92,-17.56 66.08,-72.37z"/>
  <path class="fil0" d="M339.74 600.07c-23.44,-14.63 -15.78,-28.46 -15.78,-58.42 -21.33,12.84 -6.62,67.13 0,83.7 29.11,-1.98 24.87,1.35 37.16,-25.23 40.88,49.22 63.13,-15.82 36.29,-53.22 -17.58,-24.49 -0.41,-2.74 -15.58,-15.77 3.94,38.56 15.88,38.18 9.06,56.17 -17.56,-7.65 -13.9,-2.22 -21.64,-25.09 -1.98,-5.85 -3.51,-15.4 -5.67,-20.12 -8.01,-17.52 -4.13,-8.83 -12.33,-17.1 -5.98,37.3 18.25,55.11 -11.52,75.08z"/>
  <path class="fil0" d="M90.36 656.17c32.17,-7.3 38.24,-36.85 30.77,-75.78 -14.28,18.19 -3.65,24.09 -24.38,39.08 -38.23,-27.99 0.72,-95.36 2.2,-138.06 -13.55,13.43 -11.48,9.89 -20.63,40.73 -4.08,13.75 -9.21,29.88 -11.99,44.88 -7.83,42.14 -5.74,73.74 24.03,89.16z"/>
  <path class="fil0" d="M2149.33 481.71c34.67,-4.77 41.75,-33.15 39.79,-70.85l-16.28 25.74c-8.64,11.7 3.09,1.09 -10.72,10.14 -38.42,-27.63 -0.6,-91.15 3.04,-140.73 -9.25,9.04 -4.28,-1.24 -14.64,18.3l-18.72 64.07c-7.84,39.58 -10.99,73.58 17.52,93.33z"/>
  <path class="fil0" d="M1944.71 426.02c26.4,-14.46 28.2,-29.71 24.6,-64.99 -8.71,12.96 -7.91,19.34 -16.29,31.1 -54.29,-13.86 -10.26,-94.62 -7.02,-152.14 -16.57,14.86 -12.32,15.15 -18.06,40.44 -4.29,18.88 -8.01,34.04 -12.09,52.63 -9.42,42.91 -12.48,82.69 28.85,92.97z"/>
  <path class="fil0" d="M1656.97 467.83c14.94,-7.48 19.06,-9.61 25.52,-29.94 4.25,-13.4 6.5,-27.72 0.06,-40.15l-16.26 34.91c-53.76,-16.73 -13.28,-88 -8.11,-136.6 -14.46,16.4 -66.22,147.1 -1.2,171.79z"/>
  <path class="fil0" d="M326.85 222.05c17.44,-27.98 12.21,-65.35 0.57,-97.71 -8.51,-23.68 -29.59,-59.92 -55.05,-60.95 -11.92,41.75 12.96,38.19 33.76,69.45 20.34,30.57 19.26,48.82 20.72,89.21z"/>
  <path class="fil0" d="M819.31 1018.6c30.08,-1.47 50.65,-38.86 38.37,-65.86 -26.8,25.76 6.54,22.87 -33.74,29.64 -12.03,-51.72 19.61,-67.79 11.99,-113 -20.01,26.22 -48.28,119.51 -16.61,149.22z"/>
  <path class="fil0" d="M179.88 262.89c24.22,-13.09 25.2,-26.41 27.25,-62.76 -1.12,1.4 -2.63,1.86 -3.14,4.37 -2.18,10.77 -15.69,19.97 -24.11,24.3 -38.98,-23.85 -6.19,-64.46 0.37,-105.58l-18.58 34.79c-13.82,38.47 -28,95.64 18.2,104.87z"/>
 </g>
</svg>
