<?xml version="1.0" encoding="UTF-8"?>
<!DOCTYPE svg PUBLIC "-//W3C//DTD SVG 1.1//EN" "http://www.w3.org/Graphics/SVG/1.1/DTD/svg11.dtd">
<!-- Creator: CorelDRAW 2018 (64-Bit) -->
<svg xmlns="http://www.w3.org/2000/svg" xml:space="preserve" width="537.62mm" height="227.749mm" version="1.1" style="shape-rendering:geometricPrecision; text-rendering:geometricPrecision; image-rendering:optimizeQuality; fill-rule:evenodd; clip-rule:evenodd"
viewBox="0 0 2406.18 1019.32"
 xmlns:xlink="http://www.w3.org/1999/xlink">
 <defs>
  <style type="text/css">
   <![CDATA[
    .fil0 {fill:#0C4727}
   ]]>
  </style>
 </defs>
 <g id="Layer_x0020_1">
  <metadata id="CorelCorpID_0Corel-Layer"/>
  <path class="fil0" d="M1469.01 562.28c-2.07,-0.36 -19.21,-3.39 -19.26,-3.41 -20.94,-9.12 -6.87,-1.32 -15.68,-12.83 1.05,-23.97 41.16,-37.01 34.94,16.24zm288.28 224.06c-185.5,108.69 -185.81,-74.07 -235.63,-91.94 -58.99,1.15 -118.43,71.11 -142.44,112.81 -29.62,51.45 -53,133.5 -102.32,157.08 -76.27,14.17 -79.55,-178.4 -73.02,-192.68 16.04,-15.5 50.36,-33.51 75.74,-36.07 3.43,36.8 2.54,133.36 15.93,164.81 0.51,1.21 1.53,3.38 2.67,4.81 14.33,-34.86 14.73,-70.21 17.93,-113.37 9.57,-129.1 -1.31,-66.58 113.2,-154.64 76.59,-58.9 42.52,-21.09 100.78,-26.15 22.69,-72.86 -45.23,-133.11 -73.1,-141.75 -29.83,17.16 -44.01,69.61 -41.36,111.23l34.86 15.62c-17.21,24.65 -92.13,82.14 -131.23,87.43l-59.71 -512.67c32.26,14.94 20.15,25.2 50.52,34.54 -13.07,-78.55 -59.92,-130.67 -86.47,-194.51 -45.18,44.7 -19.44,61.58 -11.81,118.92 10.4,78.15 73.26,550.32 60.46,577.17 -16.72,35.08 -70.78,20.2 -84.49,81.55 -20.86,93.35 10.82,226.46 95.77,225.06 77.03,-43.71 90.5,-233.56 220.16,-247.97 34.46,30.9 56.59,143.15 171.05,123.35 94.97,-16.43 118.48,-79.79 118.48,-184.09 0,-174.05 -76.55,-424.1 -73.6,-553.39 1.16,-50.82 10.78,-35.71 -11.86,-84.15 -10.94,-23.41 -18.77,-51.22 -36.92,-67.36 -34.29,61.79 -15.61,49.1 3.87,181.08 16.55,112.19 89.97,555.45 82.55,605.25z"/>
  <path class="fil0" d="M549.71 459.18c-42.19,57.99 0.9,136.64 11.99,207.1 13.02,82.72 -20.62,160.64 -80.9,177.01 -79.68,21.64 -136.55,-47.02 -137.37,-118.34 -0.94,-81.59 42.73,-159.43 0.51,-219.71 -72.91,54.1 -97.11,224.21 -125.28,308.86 -28.85,86.7 -84.24,64.96 -105.06,-0.32 -24.39,-76.44 -14.63,-167.27 -31.2,-189.31 -22.75,106.52 5.23,300.7 107.05,302.26 89.45,-57.16 59.87,-253.92 139.4,-321.54 1.23,56.48 -20.62,106.6 -16.19,171.76 9.77,143.73 145.04,173.38 213.23,111.01 32.2,-29.46 42.18,-86.28 59.6,-141.08 25.42,54.12 29.39,90.86 76.75,119.11 55.38,33.03 115.42,25.59 144,-18.16 67.98,-104.08 -29.9,-223.66 -61.27,-303.01 10.86,-8.21 -2.76,-0.27 14.77,-3.98 5.65,-1.19 10.05,-0.26 14.44,-2.9 -13.24,-23.67 -69.3,-95.68 -93.24,-109.63 -15.18,80.27 -19.76,41.34 10.29,108.44 16.36,36.53 23.24,67.77 41.24,105.4 58.22,121.7 107.92,155.23 26.28,171.15 -82.41,16.07 -137.98,-56.64 -145.79,-130.89 -6.73,-64.02 -21.91,-191.51 -63.25,-223.21z"/>
  <path class="fil0" d="M872.04 420.19c-34.92,-15.13 -219.72,-227.53 -229.69,-255.52l56.95 15.81c-17.59,-36.53 -135.56,-117.42 -178.6,-136.97l-5.14 69.61c59.89,43.6 91.53,97.64 136.96,155.27 62.9,79.79 150.5,161.69 209.83,230.55 38.12,44.24 30.71,36.38 36.49,109.48 7.38,93.34 13.47,186.68 21.63,279.22 1.49,-1.26 3.55,-5.26 4.17,-4.1 0.61,1.15 3.15,-3.09 3.95,-4.18 42.44,-57.8 21.2,-211.21 18.95,-277.33 30.16,13.62 53.4,52.02 72.27,79.68 18.03,26.43 34.58,60.18 54.43,87.21 29.33,-96.06 -93.36,-210.65 -130.6,-264.5 -25.95,-37.53 -59.39,-274.19 -65.09,-339.71 23.02,11.02 20.4,18.61 36.05,31.43 -0.76,-59.32 -51.72,-164.77 -84.23,-191.02 -28.79,79.73 -11.81,59.22 8.62,197.24 10.46,70.68 25.08,147.09 33.04,217.82z"/>
  <path class="fil0" d="M1933.47 318.43c-1.55,-0.99 -3.72,-4.58 -4.4,-3.31l-67.85 -78.64 39 12.68c-3.18,-29.05 -114.95,-114.78 -146.38,-128.29 -13.4,66.44 -0.15,61.12 29.1,98.1l87.69 112.48c25.58,27.27 81.86,82.23 89.15,111.18 30.98,122.86 44.33,449.15 51.2,468.55 5.18,14.64 0.52,6.16 8.2,15.65 50.87,-145.51 -2.64,-277.99 -3.49,-427.91 44.06,25.93 150.19,148.25 188.88,211.97l16.38 25.8c13.13,15.31 -2.69,0.52 13.56,12.96 -7.19,-187.12 -220.19,-285.25 -246.87,-395.74 -11.49,-47.59 -31.11,-136.56 -33.32,-186.38 25.79,16.94 19.47,20.58 44.01,32.88 -7.42,-55.73 -53.53,-164.37 -87.67,-194.38 -43.57,43.43 -11.79,82.77 -3.63,141.49 8.08,58.17 19.88,115.49 26.43,170.92z"/>
  <path class="fil0" d="M784.41 998.26c45.66,-1.67 202.9,-52.15 233,-72.52 210.82,-142.65 68.4,-570.78 59.97,-760.41l36.65 30.99c0.42,-44.98 -28.24,-107.69 -48.2,-147.54 -2.53,-5.05 -9.03,-17.52 -11.89,-21.31l-19.61 -18.39c-28.79,87.09 -14.07,49.12 -1.74,140.47 14.78,109.47 87.17,561.88 56.29,627.71 -52.47,111.84 -272.41,187.85 -304.47,221.01z"/>
  <path class="fil0" d="M1926.15 1009.42c43.25,-0.96 198.77,-48.53 232.69,-69.67 57.13,-35.6 98.16,-100.24 118.64,-188.05 43.19,-185.15 -47,-457.97 -38.3,-544.68 19.23,18.52 11.29,22.02 39.85,31.12 -5.14,-40.2 -61.28,-149.5 -81.49,-173.47 -41.68,40.04 -11.62,76.91 -3.16,129.94l58.54 462.91c6.53,64.51 6.74,95.8 -24.95,137.89 -111.61,148.19 -267.55,168.51 -301.82,214.02z"/>
  <path class="fil0" d="M18.73 432.88c52.04,-52.29 370.66,-160.34 477.29,-195.3 37.09,-12.16 48.2,-7.82 53.22,-45.81l-119.18 39.16c9.58,-49.41 23.63,-77.35 6.11,-132.81 -11.38,-36.04 -41.13,-81.24 -65.52,-92.7 -11.87,28.54 -12.23,23.37 5.23,45.56 10.13,12.87 19.28,22.31 29.34,37.77 20.43,31.41 33.86,70.49 23.89,114.74 -9.46,42.02 -41.2,43.72 -77.47,56.47 -118.16,41.56 -176.18,55.04 -296.49,117.04 -106.27,54.77 -29.68,135.5 -10.44,91.95 7.03,-15.91 -17.47,-27.05 -25.98,-36.08z"/>
  <path class="fil0" d="M208.9 440.52c11.12,12.93 10.39,11.82 16.55,35.37l-41.69 -17.28c10.95,-17.78 0.97,-9.31 25.15,-18.09zm-8.96 68.99c-64.94,65.8 -182.2,115.45 -189.07,139.81 37.65,-7.52 102.77,-49.38 132.73,-70.31 22.06,-15.42 36.38,-30.24 54.62,-45.61 37.63,-31.71 38.65,-5.67 77.61,-15.04 21.62,-62.96 -26.82,-125.63 -73.02,-135.09 -11.19,13.3 -23.91,44.13 -29.57,65.83 -8.47,32.52 9.67,45.21 26.7,60.41z"/>
  <path class="fil0" d="M1350.59 464.42c43.09,-11.11 181.64,-75.51 239.91,-99.68 71.29,-29.56 64.53,-17.7 67.67,-56.47 -42.17,9.04 -120.4,48.94 -163.59,67.32 -82.79,35.22 -140.32,45.24 -143.99,88.83z"/>
  <path class="fil0" d="M1312.41 342.77l258.38 -104.54c37.68,-14.88 64.22,-16.66 75.03,-55.42 -43.84,8.45 -204.12,79.92 -265.76,104.84 -36.48,14.74 -58.83,17.16 -67.65,55.12z"/>
  <path class="fil0" d="M548.82 371.7c-70.68,7.27 -39.74,-49.01 -72.5,-84.19 -25.63,39.99 38.61,114.48 -49.38,92.79l-8.11 -76.34c-3.67,1.61 -5.14,2.07 -5.48,4.76 -0.03,0.24 -24.24,85.19 13.74,105.85 30.96,9.38 44.07,-8.65 60.93,-27.1 92.79,61.74 80.03,-46.22 37.47,-106.46 -16.94,36.44 11.09,56.82 23.33,90.69z"/>
  <path class="fil0" d="M1666.12 1010.54c32.3,-1.53 184.41,-62.13 236.05,-80.61 37.02,-13.24 51.96,-11.73 60.47,-45.76 -36.68,3.68 -122.71,39.36 -160.33,52.63 -88.9,31.37 -125.12,31.7 -136.19,73.74z"/>
  <path class="fil0" d="M1448.37 134.68c-29.57,-41.89 -28.02,-89.3 -83.97,-95.02 -35.55,54.43 19.04,41.8 45.76,78.29 19.74,26.97 12.07,41.74 39.61,58.19 24.23,-39.19 12.39,-104.07 40.6,-131.75 32.56,8.59 20.96,20.6 33.3,21.35 0.1,-0.15 17.07,-10.56 4.23,-37.44 -7.03,-14.71 -17.54,-17.77 -37.53,-19.1 -31.73,28.42 -25.27,80.63 -42.01,125.47z"/>
  <path class="fil0" d="M1430.98 932.98c12.89,9.14 16.49,8.26 29.48,22.65 -23.42,18.63 -38.97,13.56 -43.26,49.48 36.87,-13.26 132.03,-49.48 141.48,-86.52 -27.49,4.33 -56.19,13.28 -87.93,-0.47 -1.48,-0.64 -3.21,-1.42 -4.6,-2.14 -1.38,-0.72 -3.11,-1.73 -4.38,-2.5 -8.23,-4.98 -6.86,-4.66 -11.86,-9.45 49.68,-22.81 59.51,5.57 65.42,-20.75 9.17,-40.89 -84.08,-33.62 -84.34,49.7z"/>
  <path class="fil0" d="M1858.48 824.99l-14.55 13.24c-10.53,15.06 -6.17,3.78 -9.46,26.66 25.28,-6.4 47.64,-16.27 70.64,-25.47 54.56,-21.82 52.47,-13.52 61.4,-41.12 -31.94,-14.78 -64.33,19.53 -113.7,-20.01 23.63,-29.25 38.84,-14.18 43.89,-13.32 46.64,7.88 24.28,-70.53 -39.36,-19.93 -43.3,34.43 -25.92,51.34 1.14,79.95z"/>
  <path class="fil0" d="M228.26 204.44c-10.38,-21.7 -26.04,-55.76 -45.55,-73.8 -15.89,-14.68 -9.18,-14.2 -28.22,-7.56 -16.37,35.95 13.24,38.39 35.22,61.2 33.3,34.58 12.08,52.14 47.39,67.43 11.59,-54.24 1.91,-84.52 28.22,-131.92 29.26,2.05 1.1,0.52 18.08,5.1 1.79,0.48 7.36,2.32 9.19,2.65l14.43 0.48c7.72,-40.94 -33.37,-69.69 -51.95,-31.8 -4.76,9.7 -12.47,40.53 -14.53,53.23 -3.37,20.79 -1.66,39.29 -12.26,54.98z"/>
  <path class="fil0" d="M1635.04 693.02c51.82,-45.31 20.04,-147.62 -9.93,-196.19 -23.7,-38.42 -24.67,-41.28 -49.28,-48.56 -9.83,36.27 -9.57,30.11 13.8,57.18 65.47,75.82 49.15,119.52 45.41,187.57z"/>
  <path class="fil0" d="M2026.64 313.48c-17,76.83 80.17,34.55 130.88,23.04 1.08,1.51 2.41,2.19 2.78,4.82l8.98 21.76c11.86,-26.04 16.36,-26.02 18,-59.5 -36.5,1.8 -47.32,11.26 -80.2,17.22 -33.7,6.11 -54.08,-6.84 -80.44,-7.35z"/>
  <path class="fil0" d="M966.91 1019.32l152.68 -58.12c29.74,-12.31 27.18,-9.7 39.43,-37.78 -33.81,3.52 -74.77,24.52 -105.92,37.96 -34.04,14.68 -74.21,21.65 -86.19,57.94z"/>
  <path class="fil0" d="M2363.36 507.18c11.27,-17.65 13.82,-33.5 15.06,-55.56 3.26,-58.32 -19.37,-112.34 -52.74,-152.56 -48.94,39.31 43.66,32.91 37.69,208.11z"/>
  <path class="fil0" d="M1183.49 488.67c38.93,-11.63 32.54,-28.2 34.04,-63.12 -24.69,24.14 -2.77,20.37 -35.88,26.2 -24.56,-39.27 -1.89,-98.73 5.97,-147.37 -22.47,11.82 -22.85,66.21 -27.02,90.2 -7.8,44.93 -12.17,76.14 22.9,94.08z"/>
  <path class="fil0" d="M616.42 1012.05c21.99,-17.88 25.59,-26.06 26.48,-62.78 -18.07,21.24 -9.64,25.84 -41.28,29.05 -26.29,-42.46 7.95,-79.05 11.78,-123.53 -21.79,27.84 -75.3,159.09 3.02,157.25z"/>
  <path class="fil0" d="M990.65 409.8c16.28,-13.79 22.62,-34.26 28.38,-65 -1.34,1.16 -3.33,1.23 -3.88,3.63l-25.13 25.95c-38.82,-24.4 -13.09,-77.44 -5.11,-117.68 -7.41,7.72 -3.48,-2.24 -12.52,17 -1.49,3.18 -5.42,16.07 -6.69,20.04 -13.15,41.17 -31.85,109.18 24.94,116.06z"/>
  <path class="fil0" d="M729.84 133.22c26.61,-17 24.75,-27.81 31.04,-60.88 -27.24,6.51 -8.8,12.18 -36.05,23.82 -23.83,-41.14 11.75,-52.73 -1.67,-87.21 -21.13,30.03 -51.53,112.68 6.67,124.26z"/>
  <path class="fil0" d="M343.42 937.98c-21.38,17.83 -54.42,98.99 -48.03,-45.16 -50.78,96.76 13.01,187.92 48.03,45.16z"/>
  <path class="fil0" d="M420.22 726.61c45.62,1.99 56.84,-28.84 52.8,-72.37 -7.29,28.17 -8.55,33.14 -30.05,41.06 -36.84,-21.86 -17.89,-54.94 -13.66,-96.91 -19.39,39.35 -26.18,85.43 -9.09,128.21z"/>
  <path class="fil0" d="M2084.13 214.58c25.58,-13.29 20.97,-22.09 30.39,-54.45 -30.15,9.83 -1.62,16.2 -34.98,15.51 -20.78,-33.01 -5.73,-61.72 -1.15,-98.93 -4.78,7.92 -52.67,122.71 5.73,137.86z"/>
  <path class="fil0" d="M2377.67 631.3c28.04,-10.69 26.5,-21.92 28.51,-56.56l-10.93 13.59c-11.48,9.89 -1.17,5.52 -17.58,8.97 -24.5,-27.26 -15.83,-47.88 -12.72,-87.87 -2.39,3.93 -2.5,0.18 -7.61,14.32 -11.1,30.7 -21.69,91.58 20.33,107.55z"/>
  <path class="fil0" d="M2108.42 792.02c28.88,-1.55 33.92,3.46 47.87,-60.85 -21.15,19.06 -6.66,22.9 -41.36,28.14 -16.76,-41.75 -4.98,-56.98 2.28,-82.1l0.27 -17.9c-8.18,17.08 -13.21,47.99 -18.19,67.03 -9.85,37.72 -8.27,41.34 9.12,65.68z"/>
 </g>
</svg>
