<?xml version="1.0" encoding="UTF-8"?>
<!DOCTYPE svg PUBLIC "-//W3C//DTD SVG 1.1//EN" "http://www.w3.org/Graphics/SVG/1.1/DTD/svg11.dtd">
<!-- Creator: CorelDRAW 2018 (64-Bit) -->
<svg xmlns="http://www.w3.org/2000/svg" xml:space="preserve" width="498.135mm" height="238.873mm" version="1.1" style="shape-rendering:geometricPrecision; text-rendering:geometricPrecision; image-rendering:optimizeQuality; fill-rule:evenodd; clip-rule:evenodd"
viewBox="0 0 2072.65 993.91"
 xmlns:xlink="http://www.w3.org/1999/xlink">
 <defs>
  <style type="text/css">
   <![CDATA[
    .fil0 {fill:#0C4727}
   ]]>
  </style>
 </defs>
 <g id="Layer_x0020_1">
  <metadata id="CorelCorpID_0Corel-Layer"/>
  <path class="fil0" d="M490.96 317.49c51.75,39.55 76.07,98.41 220.89,200.06 43.62,30.62 83.5,52.67 127.87,82.88 38.96,26.53 98.18,57.46 103.95,108.5 -45.41,37.43 -191.26,66.14 -248.59,30.01 -64.32,-40.54 -55.99,-195 -106.43,-208.59 -26.22,34.92 0.64,52.42 -54.85,74.05 -70.08,27.32 -85.99,-17.52 -100.21,-28.16 -7.08,7.22 -2.44,-1.86 -11.51,15.68 -34.33,66.41 39.82,79.37 34.62,153.42 -56.55,46.85 -292.43,153.98 -384.53,89.34 -53.24,-37.36 -38.11,-142.73 3.79,-185.73 36.09,-37.03 46.97,12.78 88.33,-110.29 7.99,-23.76 14.9,-33.91 1.37,-50.21 -31.75,22.38 -7.45,86.71 -87.39,77.82 -119.7,-126.15 34.26,-319.1 14.2,-379.57 -19.37,5.78 -9.69,-11.03 -27.03,48.49 -23.75,81.57 -79.4,222.71 -62.21,302.37 13.31,61.68 31.92,63.81 54.05,96.93 -17.44,59.65 -70.79,128.83 -43.49,208.89 22.42,65.74 98.15,92.06 178.02,76.39 65.34,-12.82 141.27,-43.18 195.67,-70.76 76.08,-38.56 103.87,-62.71 107,-167.16 51.09,-16.34 66.43,-21.11 85.98,-66.07 24.13,20.85 27.25,80.53 50.49,131.32 46.15,100.87 169.81,85.26 259.07,52.33 51.73,-19.08 83.31,-35.33 87.78,-98.04 7.11,-99.66 -103.11,-152 -169.79,-193.32 -57.19,-35.45 -181.41,-117.18 -207.05,-157.81 20.99,5.89 26.31,13.09 43.98,5.11 -10.92,-39.21 -96.96,-60.48 -122.22,-97.44 69.9,-44.78 201.01,-81.7 289.74,-112.88 56.65,-19.9 272.59,-101.69 313.83,-50.1 -4.93,24.53 -83.43,79.69 -108.86,90.64 -12.79,-14.01 -18.08,-31.85 -31.52,-45.5 -48.77,26.32 -19.02,65.24 -22.2,89.37 -2.72,20.64 -39.85,46.61 -53,82.84 -66.94,-85.12 -87.9,-23.18 -183.81,-45.57 8.38,-22.38 46.59,-33.61 71.03,-28.14 18.29,4.09 14.66,17.48 29.08,1.12 10.1,-11.46 8.07,-25.56 -4.9,-31.38 -27.13,-12.17 -126.11,21.33 -130,86.23 59.32,13.6 136.7,-9.14 173.08,18.61 -24.63,16.2 -77.29,10.91 -109.32,11.03 -63.2,0.24 -61.26,-16.9 -97.56,-23.04l-3.03 31.99c51.36,38.12 202.63,26.77 237.4,2.75 30.69,-21.2 5,-5.42 23.52,-11.39 23.56,-7.6 29.1,-38.44 59.07,-49.2 16.4,47.11 33.33,223.78 43.48,289.52 7.48,48.42 14.99,96.04 20.67,147.01 2.93,26.36 8.94,154.08 11.22,161.35 57.35,-8.5 25.85,-253.54 20.91,-286.62 -11.49,-76.9 -44.27,-229.73 -41.5,-298.67 13.92,7.34 15.92,11.94 38.54,13.9 -5.21,-40.9 -21.33,-50.55 -28.75,-82.88 35.75,-44.58 150.13,-110.03 143.71,-175.48 -53.62,-43.08 -119.87,-22.38 -206.97,-0.73 -64.99,16.15 -131.18,38.7 -194.71,59.39 -133.59,43.52 -300.83,63.85 -290.95,215.34z"/>
  <path class="fil0" d="M1330.23 401.3c-22.06,-9.84 -11.63,-8.18 -16.25,-14.88 1.04,-3.75 30.82,-33.82 44.6,21.73 -10.88,-2.02 -17.82,-2.15 -28.35,-6.85zm-134.01 164.62c8.98,-4 16.61,-6.69 25.83,-11.36 18.8,-9.52 32.66,-18.21 50.75,-29.85 16.73,-10.77 33.47,-22.01 47.78,-32.89 23.79,-18.1 19.43,-24.3 37.27,-44.35l61.14 19.94c4.11,-49.83 -7.7,-27.73 -39.93,-52.59 -4.36,-24.56 -1.06,-48.76 -17.75,-63.45 -16.02,-14.11 -37.12,-12.55 -53.76,3.54 -43.06,41.62 -10.14,68.35 30.41,87.22 -11.74,25.28 -80.6,65.09 -112.73,84.72 -47.82,29.22 -35.5,12.79 -121.26,68.44 9.28,7.26 0.42,4.54 15.97,4.84 0.08,0 20.49,-4.1 21.95,-4.38 0.83,62.1 -1.32,102.82 27.46,152.76 16.42,28.5 57.56,79.34 101.38,77.88 89.45,-2.98 83.18,-177.65 137.64,-216.01 0.78,49.09 -19.26,98.62 2.04,145.25 13.62,29.82 56.1,59.33 93.63,67.01 105.82,21.67 139.26,-68.72 171.21,-137.5 25.16,59.18 12.99,81.31 68.19,115.6 90.67,56.32 205.89,-5.02 190.67,-134.75 -3.95,-33.66 -36.51,-93.12 -49.31,-130.72 12.49,-5.54 6.83,1.55 23.21,-6.32 -7.34,-25.35 -19.57,-34.7 -35.38,-55.74 -12.94,-17.22 -25.13,-40.84 -43.53,-48.03 -19.06,18.39 -32.1,47.38 -19.53,73.37 19.88,41.11 86.89,192.95 89.34,222.79 -64.86,65.82 -157.86,25.71 -177.15,-53.85 -11.17,-46.08 -7.06,-208.01 -68.21,-225.39 -32.97,103.4 -0.91,76.05 4.18,173.73 8.11,155.76 -192.07,181.45 -217.9,78.85 -15.95,-63.34 35.63,-112.57 -1.01,-177.19 -85.59,1.46 -89.83,155.06 -138.85,220.41 -76.27,101.68 -155.04,-60.39 -130.53,-153.35l26.8 -18.63z"/>
  <path class="fil0" d="M2032.47 857.37c95.09,-39.22 -7.04,-499.09 -17.52,-595.89 24.92,12.29 7.85,16.88 34.16,10.18 0.01,-34.98 -72.9,-154.26 -77.39,-158.57 -26.03,9.85 -37.44,43.74 -28.23,71.09 38.7,114.95 78.4,431.35 89.29,562.91 3.27,39.59 -4.33,75.17 -0.31,110.29z"/>
  <path class="fil0" d="M1641.3 149.02l-481.84 169.39c-31.12,12.08 -45.15,15.24 -50.26,51.66l408.11 -146.54c72.45,-23.59 139.26,-46.74 209.57,-69.54 35.32,-11.45 68.58,-23.11 102.8,-33.91 39.2,-12.37 84.58,-12.19 85.37,-54.6 -83.38,11.75 -176.76,62.28 -255.26,78.14 -1.77,-35.25 -4.52,-66.2 -21.79,-93.21 -9.35,-14.62 -46.37,-56.63 -61.82,-49.62 -33.8,15.33 27.08,53.37 35.98,62.99 19.31,20.87 33.04,51.18 29.14,85.25z"/>
  <path class="fil0" d="M297.19 139.32l49.14 27.06c-24.72,34.31 -122.82,94.84 -168.86,125.14 -23.59,15.52 -44.15,21.64 -55.49,46.49 57.3,-7.82 209.06,-107.04 237.81,-161.47 16.72,2.31 54.12,23.59 38.14,-14.29 -9.35,-22.15 -9.21,0.42 -17.18,-26.22 -5.14,-17.19 1.3,-25.19 -5.11,-45.13 -13.97,-43.47 -92.35,-35.14 -78.46,48.43z"/>
  <path class="fil0" d="M1546.37 362.09c-79.21,8.77 -49.64,-44.55 -68.76,-99.33 -29.49,10.69 -19.84,19.58 -14.84,49.93 4.18,25.35 0.67,47.71 15.04,65.21 44.66,54.39 74.22,4.58 96.97,-23.53 25.34,14.35 44.33,33.79 82.69,22.44 46.49,-27.04 -2.39,-109.2 -33.07,-128.11 -22.28,37.2 20.18,60.62 32.03,96.42 -68.44,2.14 -68.72,-26.79 -80.33,-65.2 -8.73,-28.86 -3.12,-21.01 -20.55,-30.93 -18.88,65.18 25.18,55.08 -9.19,113.09z"/>
  <path class="fil0" d="M211.19 584.4c25.2,0.03 146.71,-57.34 181.6,-71.34 31.04,-12.46 58.38,-22.99 89.58,-34.46 35.42,-13.02 75.51,-13.44 71.55,-51.25 -36.66,-4.33 -219.29,75.27 -274.62,96.27 -37.03,14.05 -68.88,16.98 -68.1,60.78z"/>
  <path class="fil0" d="M1820.53 316.67c-27.88,-10.92 -53.99,-106.34 -121.7,-103.59 -40.31,56.58 25.08,48.36 54.54,69.15 26.64,18.8 34.58,70.39 69.55,77.92 25,-40.18 1.32,-87.13 24.35,-134.75 36.47,1.64 23.62,12.51 43.83,26.77 29.44,-38.44 -21.9,-76.8 -48.55,-57.5 -26.9,19.48 -22.02,84.57 -22.02,121.99z"/>
  <path class="fil0" d="M315.44 436.83c-23.59,-18.83 -86.54,-104.23 -133.4,-91.34l-4.68 53.33c74.47,19.23 67.91,2.06 113.61,55.77 16.11,18.94 10.56,20.52 30.98,25.09 20.28,-47.53 -6.85,-105.31 24.81,-137.17 32.74,6.65 33.91,39.11 42.33,11.36 8.32,-27.45 -11.89,-48.35 -35.15,-45.74 -42.79,4.8 -32.62,85.42 -38.5,128.7z"/>
  <path class="fil0" d="M247.43 758.04c-35.04,-22.79 -46.36,-102.42 -111.91,-99.31 -25.51,81.59 7.49,43.27 50.04,68.73 23.4,14.01 40.68,77.44 69.01,69.87 18.39,-37.27 0.88,-100.48 29.73,-130.75 40.82,1.69 16.41,12.86 49.57,17.88 9.43,-52.73 -39.97,-73 -64.23,-40.43 -17.28,23.2 -19.51,80.74 -22.21,114.01z"/>
  <path class="fil0" d="M1414.43 149.21c-16.11,-20.02 -76.38,-96.34 -121.42,-75.25l-3.15 39.25c39.33,17.5 68.3,6.01 107.58,59.83 13.56,18.58 5.24,19.43 27.87,25.66 11.41,-26.54 17.03,-85.67 22.82,-118.16 43.02,8.01 13.31,24.38 40.99,22.41 18.89,-37.54 -20.75,-79.08 -47.5,-55.03 -21.68,19.48 -12.81,74.58 -27.19,101.28z"/>
  <path class="fil0" d="M911.16 993.24c19.08,-60.39 -13.24,-126.34 26.13,-112.08 5.22,1.89 40.22,33.71 29.76,-15.02 -4.55,-21.18 -22.21,-27.16 -47.63,-24.39 -21.36,27.16 -16.61,67.96 -16.66,108.47 -26.3,-13.3 -124.72,-147.38 -121.84,-34.94 32.53,14.74 44.97,4.87 71.79,31.93 49.78,50.22 28.24,47.7 58.46,46.04z"/>
  <path class="fil0" d="M1173.64 237.56c-10.06,12.29 -16.47,15.77 -20.08,37.36 29.57,-2.83 42.54,-24.2 73.07,-38.08 29.7,-13.5 63.53,-15.62 60.74,-52.8 -30.44,1.93 -110.25,45.09 -124.61,-4.99 41.73,-12.18 65.63,29.94 64.16,-28.61 -31.99,-14.17 -69.09,-4.18 -86.79,18.83 -31.12,40.44 16.29,52.77 33.51,68.3z"/>
  <path class="fil0" d="M1674.08 974.97c14.81,-33.61 -0.06,-86.53 24.76,-116.45 34.29,2.37 11.87,10.08 42.54,16.68 18.65,-45.46 -66.47,-120.47 -69.34,61.3 -27.64,-12.25 -47.33,-97.27 -107.86,-95.1 -43.81,56.21 6.4,50.45 40.96,66.72 40.59,19.11 28.68,62.23 68.94,66.85z"/>
  <path class="fil0" d="M581.92 894.99c24.13,28.52 50.97,47.25 81.15,62.78 18.18,-11.3 35.39,-34.34 37.12,-56.58 -15.19,-16.59 -61.39,-49.18 -82.1,-54.85 -9.2,9.27 -28.43,33.22 -36.16,48.65z"/>
  <path class="fil0" d="M511.58 62.91c15.71,6.67 6.02,1.33 18.14,10.59 0.49,0.37 11.49,10.07 13.14,11.68 28.77,27.98 9.99,20.74 8.96,23.83 -61.22,26.02 -59.37,-9.29 -40.24,-46.1zm15.04 -45.9c-11.51,11.33 -36.98,55.81 -43.33,71.92 -37.78,95.83 123.88,70.66 96.27,-9.26 -3.5,-10.13 -42.38,-54.21 -52.93,-62.65z"/>
  <path class="fil0" d="M1529.59 665.54c49.36,3.33 57.47,-26.75 66.11,-74.93 -15.91,9.59 -2.28,-2.98 -11.71,9.52 -15.98,21.16 -2.69,31.13 -39.77,32.93 -44.19,-60.22 39.71,-110.1 5.77,-147.87 -8.9,16.71 -24.48,67.36 -31.17,87.07 -14.98,44.15 -11.43,65.74 10.77,93.29z"/>
  <path class="fil0" d="M470.81 936.45c-47.06,-32.18 14.01,-68.23 0,-110.17 -19.07,9.33 -25.33,40.53 -33.64,72.16 -20.07,76.34 58.07,113.02 74.42,5.35l-23.61 21.36c-8.23,8.12 -5.8,6.53 -17.16,11.29z"/>
  <path class="fil0" d="M1332.91 934.24c-54.75,-39.95 11.05,-79.89 11.34,-124.41 -33.87,13.21 -72.67,121.2 -24.25,158.3 38.35,-0.15 55.01,-30.88 56.5,-71.26 -27.97,21.13 -1.34,30.1 -43.58,37.36z"/>
  <path class="fil0" d="M1212.38 428.77c-4.85,24.77 -1.92,22.08 -16.31,36.54l-26.61 -1.4c-14.24,-46.85 4.16,-58.53 10.98,-103.67 -53.74,28.21 -35.73,188.19 20.92,130.83 5.45,-5.52 12.91,-19.44 15.87,-28.61 13.39,-41.51 0.93,-27.42 -4.86,-33.68z"/>
  <path class="fil0" d="M1244.04 689.35c30.52,-1.47 49.31,-21.37 49.1,-50.21 -0.08,-10.93 -1.71,-8.97 -3.65,-13.26 -1.11,1.3 -2.51,1.79 -2.98,4.17 -0.28,1.43 -13.3,22.76 -21.83,24.34 -56.64,-10.06 -2.3,-71.68 -12.4,-100.14 -11.16,6.83 -2.18,-4 -9.66,8.64l-17.37 56.85c-7.56,36.26 -0.07,48.36 18.8,69.61z"/>
  <path class="fil0" d="M935.17 448.39c-19.88,18.16 -5.93,22.47 -36.41,26.21 -31.34,-26.08 -8.4,-58.17 4.02,-99.31 -18.8,4.68 -2.92,-13.94 -16.45,17.09 -3.57,8.19 -6.72,18.64 -10.01,27.38 -41.42,110.04 49.45,122.61 58.84,28.63z"/>
  <path class="fil0" d="M762.31 708.03c30.05,-5.95 33.18,-16.38 39.83,-50.15l-12.59 10.36c-1.65,1.15 -2.91,7.22 -15.38,7.63 -14.34,0.47 -17.81,-8.02 -21.02,-19.54 -5.83,-20.92 9.32,-52.21 14.32,-73.22 -28.42,21.44 -56.87,101.63 -5.16,124.91z"/>
 </g>
</svg>
